<?xml version="1.0" encoding="UTF-8" standalone="no"?>
<svg width="22px" height="22px" viewBox="0 0 22 22" version="1.1" xmlns="http://www.w3.org/2000/svg" xmlns:xlink="http://www.w3.org/1999/xlink">
    <!-- Generator: Sketch 47 (45396) - http://www.bohemiancoding.com/sketch -->
    <title>NO</title>
    <desc>Created with Sketch.</desc>
    <defs></defs>
    <g id="Page-1---examples" stroke="none" stroke-width="1" fill="none" fill-rule="evenodd">
        <g id="Desktop-HD" transform="translate(-141.000000, -102.000000)">
            <g id="FACES" transform="translate(60.000000, 101.000000)">
                <g id="NO" transform="translate(80.000000, 0.000000)">
                    <rect id="rect1710-08" x="-9.99999997e-06" y="-1.13686838e-13" width="24" height="24"></rect>
                    <circle id="path4116-9" stroke="#808080" stroke-width="1.50752521" stroke-linecap="round" stroke-linejoin="round" cx="11.99997" cy="12" r="10.246263"></circle>
                    <path d="M8.03273547,14.2503633 C7.95256055,14.4172474 7.97123545,14.614784 8.08126448,14.7636864 C8.94560231,15.9488784 10.3769807,16.7231352 11.9845242,16.7231352 C13.5920676,16.7231352 15.023446,15.9488784 15.8877839,14.7636864 C15.9931916,14.6186895 16.0130009,14.4283902 15.9397166,14.2647923 C15.8664323,14.1011943 15.7112473,13.9892844 15.532879,13.971406 C15.3545107,13.9535276 15.1802019,14.0324113 15.0759059,14.1782099 C14.3992243,15.106099 13.2737115,15.7239007 11.9845242,15.7239007 C10.6953368,15.7239007 9.56982409,15.106099 8.8931425,14.1782099 C8.79512993,14.0395737 8.63342504,13.9601936 8.46379642,13.9674464 C8.27879096,13.9746074 8.11291039,14.0834793 8.03273547,14.2503633 Z" id="Path" fill="#111111" transform="translate(11.983453, 15.345062) rotate(180.000000) translate(-11.983453, -15.345062) "></path>
                    <circle id="Oval" fill="#111111" cx="9" cy="9" r="1"></circle>
                    <circle id="Oval" fill="#111111" cx="15" cy="9" r="1"></circle>
                </g>
            </g>
        </g>
    </g>
</svg>