<?xml version="1.0" encoding="UTF-8" standalone="no"?>
<svg width="22px" height="22px" viewBox="0 0 22 22" version="1.1" xmlns="http://www.w3.org/2000/svg" xmlns:xlink="http://www.w3.org/1999/xlink">
    <!-- Generator: Sketch 47 (45396) - http://www.bohemiancoding.com/sketch -->
    <title>MIDDLE</title>
    <desc>Created with Sketch.</desc>
    <defs></defs>
    <g id="Page-1---examples" stroke="none" stroke-width="1" fill="none" fill-rule="evenodd">
        <g id="Desktop-HD" transform="translate(-101.000000, -102.000000)">
            <g id="FACES" transform="translate(60.000000, 101.000000)">
                <g id="MIDDLE" transform="translate(40.000000, 0.000000)">
                    <rect id="rect1710-08" x="-9.99999997e-06" y="-1.13686838e-13" width="24" height="24"></rect>
                    <circle id="path4116-9" stroke="#808080" stroke-width="1.50752521" stroke-linecap="round" stroke-linejoin="round" cx="11.99997" cy="12" r="10.246263"></circle>
                    <circle id="Oval" fill="#111111" cx="9" cy="9" r="1"></circle>
                    <circle id="Oval" fill="#111111" cx="15" cy="9" r="1"></circle>
                    <path d="M8,14.75 C8,14.25 8.2962963,14 8.88888889,14 C9.48148148,14 11.5555556,14 15.1111111,14 C15.7037037,14 16,14.25 16,14.75 C16,15.25 15.7037037,15.5 15.1111111,15.5 C11.5555556,15.5 9.48148148,15.5 8.88888889,15.5 C8.2962963,15.5 8,15.25 8,14.75 Z" id="Path-2" fill="#111111"></path>
                </g>
            </g>
        </g>
    </g>
</svg>